<svg width="26" height="25" viewBox="0 0 26 25" fill="none" xmlns="http://www.w3.org/2000/svg">
<path d="M19.25 22.6563H14.8229V17.1875C14.8229 16.1823 14.0052 15.3646 13 15.3646C11.9948 15.3646 11.1771 16.1823 11.1771 17.1875V22.6563H6.75C4.23125 22.6563 2.84375 21.2688 2.84375 18.75V12.1355C2.84375 9.92399 3.45416 9.30625 4.44999 8.48021L10.825 3.13544C12.0844 2.07815 13.9156 2.07815 15.175 3.13544L21.55 8.48021C22.5458 9.30625 23.1563 9.92504 23.1563 12.1355V18.75C23.1563 21.2688 21.7688 22.6563 19.25 22.6563ZM16.3854 21.0938H19.25C20.8927 21.0938 21.5938 20.3927 21.5938 18.75V12.1355C21.5938 10.5459 21.3312 10.3282 20.5531 9.68235L14.1719 4.33236C13.4927 3.76361 12.5073 3.76361 11.8281 4.33236L5.4469 9.68235C4.66877 10.3282 4.40625 10.5459 4.40625 12.1355V18.75C4.40625 20.3927 5.10729 21.0938 6.75 21.0938H9.61458V17.1875C9.61458 15.3208 11.1333 13.8021 13 13.8021C14.8667 13.8021 16.3854 15.3208 16.3854 17.1875V21.0938Z" fill="#4558C8"/>
</svg>
