<svg width="360" height="97" viewBox="0 0 360 97" fill="none" xmlns="http://www.w3.org/2000/svg">
<path d="M24.7887 91.425V87.1538H22.5498V94.3124H24.615L28.3844 90.0412V94.3124H30.6367V87.1538H28.5849L24.7887 91.425Z" fill="white"/>
<path d="M36.8588 88.9967C37.1662 88.8437 37.5071 88.7638 37.8813 88.7638C38.2355 88.7638 38.563 88.8437 38.8638 88.9967C39.1645 89.1497 39.4185 89.3959 39.6257 89.7352L41.3567 88.857C41.0894 88.2782 40.6482 87.8324 40.0334 87.5197C39.4185 87.207 38.7101 87.0474 37.888 87.0474C37.066 87.0474 36.3041 87.207 35.6558 87.5264C35.0075 87.8457 34.4929 88.2782 34.1253 88.8303C33.7577 89.3825 33.5706 90.0146 33.5706 90.7331C33.5706 91.4516 33.7577 92.077 34.1253 92.6358C34.4929 93.1947 35.0075 93.6338 35.6558 93.9465C36.3041 94.2592 37.0459 94.4188 37.888 94.4188C38.7301 94.4188 39.4185 94.2592 40.0334 93.9398C40.6416 93.6205 41.0827 93.1747 41.3567 92.6092L39.6257 91.731C39.4118 92.077 39.1579 92.3298 38.8638 92.4828C38.563 92.6358 38.2355 92.7157 37.8813 92.7157C37.5071 92.7157 37.1662 92.6358 36.8588 92.4828C36.5513 92.3298 36.3041 92.1036 36.1236 91.8042C35.9432 91.5048 35.8496 91.1522 35.8496 90.7331C35.8496 90.314 35.9432 89.9614 36.1236 89.6686C36.3041 89.3759 36.5513 89.1497 36.8588 88.9967Z" fill="white"/>
<path d="M52.1302 87.1538H49.7375L47.6322 89.9347H46.4025V87.1538H44.1636V94.3124H46.4025V91.598H47.5855L49.664 94.3124H52.3173L49.41 90.5801L52.1302 87.1538Z" fill="white"/>
<path d="M57.8379 92.0105L55.6524 87.1538H53.34L56.6884 94.3723L56.6616 94.4321C56.5079 94.7515 56.3341 94.9777 56.147 95.1174C55.9599 95.2571 55.7126 95.3236 55.4052 95.3236C55.1712 95.3236 54.944 95.2837 54.7168 95.2039C54.4895 95.124 54.289 95.0109 54.1153 94.8579L53.2932 96.3482C53.5539 96.5544 53.8813 96.7141 54.2757 96.8272C54.67 96.9403 55.0643 97.0002 55.4586 97.0002C55.9331 97.0002 56.3609 96.9336 56.7485 96.8006C57.1362 96.6675 57.4971 96.4413 57.8179 96.1153C58.1387 95.7893 58.426 95.3369 58.68 94.7515L62.1888 87.1538H60.0367L57.8312 92.0105H57.8379Z" fill="white"/>
<path d="M67.1413 88.9967C67.4487 88.8437 67.7895 88.7638 68.1638 88.7638C68.518 88.7638 68.8455 88.8437 69.1463 88.9967C69.447 89.1497 69.701 89.3959 69.9082 89.7352L71.6392 88.857C71.3718 88.2782 70.9307 87.8324 70.3159 87.5197C69.701 87.207 68.9925 87.0474 68.1705 87.0474C67.3484 87.0474 66.5865 87.207 65.9382 87.5264C65.29 87.8457 64.7753 88.2782 64.4077 88.8303C64.0402 89.3825 63.853 90.0146 63.853 90.7331C63.853 91.4516 64.0402 92.077 64.4077 92.6358C64.7753 93.1947 65.29 93.6338 65.9382 93.9465C66.5865 94.2592 67.3284 94.4188 68.1705 94.4188C69.0126 94.4188 69.701 94.2592 70.3159 93.9398C70.924 93.6205 71.3651 93.1747 71.6392 92.6092L69.9082 91.731C69.6943 92.077 69.4403 92.3298 69.1463 92.4828C68.8455 92.6358 68.518 92.7157 68.1638 92.7157C67.7895 92.7157 67.4487 92.6358 67.1413 92.4828C66.8338 92.3298 66.5865 92.1036 66.4061 91.8042C66.2256 91.5048 66.1321 91.1522 66.1321 90.7331C66.1321 90.314 66.2256 89.9614 66.4061 89.6686C66.5865 89.3759 66.8338 89.1497 67.1413 88.9967Z" fill="white"/>
<path d="M77.006 88.9967C77.3134 88.8437 77.6543 88.7638 78.0285 88.7638C78.3828 88.7638 78.7103 88.8437 79.011 88.9967C79.3118 89.1497 79.5657 89.3959 79.7729 89.7352L81.5039 88.857C81.2366 88.2782 80.7955 87.8324 80.1806 87.5197C79.5657 87.207 78.8573 87.0474 78.0352 87.0474C77.2132 87.0474 76.4513 87.207 75.803 87.5264C75.1547 87.8457 74.6401 88.2782 74.2725 88.8303C73.9049 89.3825 73.7178 90.0146 73.7178 90.7331C73.7178 91.4516 73.9049 92.077 74.2725 92.6358C74.6401 93.1947 75.1547 93.6338 75.803 93.9465C76.4513 94.2592 77.1931 94.4188 78.0352 94.4188C78.8773 94.4188 79.5657 94.2592 80.1806 93.9398C80.7888 93.6205 81.2299 93.1747 81.5039 92.6092L79.7729 91.731C79.559 92.077 79.3051 92.3298 79.011 92.4828C78.7103 92.6358 78.3828 92.7157 78.0285 92.7157C77.6543 92.7157 77.3134 92.6358 77.006 92.4828C76.6986 92.3298 76.4513 92.1036 76.2708 91.8042C76.0904 91.5048 75.9968 91.1522 75.9968 90.7331C75.9968 90.314 76.0904 89.9614 76.2708 89.6686C76.4513 89.3759 76.6986 89.1497 77.006 88.9967Z" fill="white"/>
<path d="M83.3149 88.8436H85.9415V94.3124H88.1938V88.8436H90.807V87.1538H83.3149V88.8436Z" fill="white"/>
<path d="M100.017 90.8795C99.8294 90.7531 99.5955 90.6599 99.3349 90.5801C99.4685 90.5202 99.6022 90.4537 99.7225 90.3805C100.237 90.0478 100.498 89.5954 100.498 89.0166C100.498 88.4378 100.224 87.9655 99.6757 87.6395C99.1277 87.3135 98.3658 87.1538 97.3967 87.1538H93.4268V94.3124H97.5704C98.6398 94.3124 99.4351 94.1328 99.9497 93.7668C100.464 93.4009 100.732 92.9086 100.732 92.2766C100.732 91.6445 100.498 91.1988 100.023 90.8795H100.017ZM95.4852 88.5642H97.1895C97.5771 88.5642 97.8645 88.6241 98.0717 88.7439C98.2722 88.8636 98.3725 89.0565 98.3725 89.3227C98.3725 89.5622 98.2722 89.7484 98.0717 89.8882C97.8712 90.0279 97.5771 90.0944 97.1895 90.0944H95.4852V88.5642ZM98.2989 92.7024C98.0851 92.8354 97.7776 92.9019 97.3766 92.9019H95.4852V91.3052H97.4167C97.8311 91.3052 98.1318 91.3718 98.3257 91.4982C98.5195 91.6246 98.6131 91.8308 98.6131 92.1169C98.6131 92.3764 98.5061 92.5693 98.2989 92.7024Z" fill="white"/>
<path d="M109.647 87.5197C109.006 87.207 108.264 87.0474 107.442 87.0474C106.62 87.0474 105.891 87.207 105.256 87.5197C104.615 87.8324 104.114 88.2715 103.746 88.8237C103.378 89.3759 103.198 90.0146 103.198 90.7331C103.198 91.4516 103.378 92.077 103.746 92.6292C104.114 93.1814 104.615 93.6205 105.256 93.9398C105.898 94.2592 106.627 94.4188 107.442 94.4188C108.257 94.4188 109.006 94.2592 109.647 93.9398C110.289 93.6205 110.797 93.188 111.165 92.6358C111.532 92.0836 111.713 91.4516 111.713 90.7331C111.713 90.0146 111.532 89.3759 111.165 88.8237C110.797 88.2715 110.296 87.8324 109.647 87.5197ZM109.166 91.7976C108.986 92.0969 108.752 92.3298 108.458 92.4828C108.164 92.6358 107.823 92.7157 107.442 92.7157C107.061 92.7157 106.747 92.6358 106.446 92.4828C106.145 92.3298 105.911 92.0969 105.731 91.7976C105.551 91.4982 105.464 91.1389 105.464 90.7331C105.464 90.3273 105.551 89.9614 105.731 89.6686C105.911 89.3759 106.145 89.1497 106.446 88.9967C106.747 88.8437 107.081 88.7638 107.455 88.7638C107.83 88.7638 108.164 88.8437 108.458 88.9967C108.752 89.1497 108.986 89.3759 109.166 89.6686C109.347 89.9614 109.434 90.314 109.434 90.7331C109.434 91.1522 109.347 91.4982 109.166 91.7976Z" fill="white"/>
<path d="M122.827 88.9967C123.135 88.8437 123.475 88.7638 123.85 88.7638C124.224 88.7638 124.531 88.8437 124.832 88.9967C125.133 89.1497 125.387 89.3959 125.601 89.7352L127.332 88.857C127.064 88.2782 126.623 87.8324 126.008 87.5197C125.394 87.207 124.685 87.0474 123.863 87.0474C123.041 87.0474 122.279 87.207 121.631 87.5264C120.983 87.8457 120.468 88.2782 120.1 88.8303C119.733 89.3825 119.546 90.0146 119.546 90.7331C119.546 91.4516 119.733 92.077 120.1 92.6358C120.468 93.1947 120.983 93.6338 121.631 93.9465C122.279 94.2592 123.021 94.4188 123.863 94.4188C124.705 94.4188 125.394 94.2592 126.008 93.9398C126.617 93.6205 127.058 93.1747 127.332 92.6092L125.601 91.731C125.387 92.077 125.133 92.3298 124.832 92.4828C124.531 92.6358 124.204 92.7157 123.85 92.7157C123.475 92.7157 123.135 92.6358 122.827 92.4828C122.52 92.3298 122.272 92.1036 122.092 91.8042C121.912 91.5048 121.818 91.1522 121.818 90.7331C121.818 90.314 121.912 89.9614 122.092 89.6686C122.272 89.3759 122.52 89.1497 122.827 88.9967Z" fill="white"/>
<path d="M130.132 94.3124H132.364V88.8436H135.599V94.3124H137.851V87.1538H130.132V94.3124Z" fill="white"/>
<path d="M147.261 87.5197C146.62 87.207 145.878 87.0474 145.056 87.0474C144.234 87.0474 143.505 87.207 142.87 87.5197C142.229 87.8324 141.728 88.2715 141.36 88.8237C140.992 89.3759 140.812 90.0146 140.812 90.7331C140.812 91.4516 140.992 92.077 141.36 92.6292C141.728 93.1814 142.229 93.6205 142.87 93.9398C143.512 94.2592 144.241 94.4188 145.056 94.4188C145.871 94.4188 146.62 94.2592 147.261 93.9398C147.903 93.6205 148.411 93.188 148.779 92.6358C149.146 92.0836 149.327 91.4516 149.327 90.7331C149.327 90.0146 149.146 89.3759 148.779 88.8237C148.411 88.2715 147.91 87.8324 147.261 87.5197ZM146.78 91.7976C146.6 92.0969 146.366 92.3298 146.072 92.4828C145.778 92.6358 145.437 92.7157 145.056 92.7157C144.675 92.7157 144.361 92.6358 144.06 92.4828C143.759 92.3298 143.525 92.0969 143.345 91.7976C143.165 91.4982 143.078 91.1389 143.078 90.7331C143.078 90.3273 143.165 89.9614 143.345 89.6686C143.525 89.3759 143.759 89.1497 144.06 88.9967C144.361 88.8437 144.695 88.7638 145.069 88.7638C145.444 88.7638 145.778 88.8437 146.072 88.9967C146.366 89.1497 146.6 89.3759 146.78 89.6686C146.961 89.9614 147.048 90.314 147.048 90.7331C147.048 91.1522 146.961 91.4982 146.78 91.7976Z" fill="white"/>
<path d="M158.837 87.5064C158.256 87.2004 157.594 87.0474 156.852 87.0474C156.191 87.0474 155.609 87.1804 155.115 87.4465C154.854 87.5863 154.627 87.7725 154.426 87.9854V87.1538H152.274V96.8937H154.526V93.5473C154.707 93.7336 154.914 93.8932 155.148 94.0196C155.636 94.2858 156.204 94.4188 156.852 94.4188C157.594 94.4188 158.256 94.2658 158.837 93.9598C159.419 93.6537 159.88 93.228 160.221 92.6824C160.562 92.1369 160.735 91.4849 160.735 90.7331C160.735 89.9813 160.562 89.3426 160.221 88.7904C159.88 88.2382 159.419 87.8125 158.837 87.5064ZM158.189 91.7909C158.009 92.0903 157.775 92.3165 157.481 92.4762C157.186 92.6358 156.852 92.7157 156.478 92.7157C156.104 92.7157 155.763 92.6358 155.469 92.4762C155.168 92.3165 154.934 92.0903 154.754 91.7909C154.573 91.4915 154.486 91.1389 154.486 90.7331C154.486 90.3273 154.573 89.9614 154.754 89.6686C154.934 89.3759 155.168 89.1497 155.469 88.9967C155.77 88.8437 156.104 88.7638 156.478 88.7638C156.852 88.7638 157.186 88.8437 157.481 88.9967C157.775 89.1497 158.009 89.3759 158.189 89.6686C158.369 89.9614 158.456 90.314 158.456 90.7331C158.456 91.1522 158.369 91.4915 158.189 91.7909Z" fill="white"/>
<path d="M162.466 88.8436H165.093V94.3124H167.345V88.8436H169.958V87.1538H162.466V88.8436Z" fill="white"/>
<path d="M174.81 91.425V87.1538H172.572V94.3124H174.637L178.406 90.0412V94.3124H180.658V87.1538H178.607L174.81 91.425Z" fill="white"/>
<path d="M190.817 90.8795C190.63 90.7531 190.396 90.6599 190.135 90.5801C190.276 90.5202 190.403 90.4537 190.523 90.3805C191.037 90.0478 191.291 89.5954 191.291 89.0166C191.291 88.4378 191.017 87.9655 190.469 87.6395C189.921 87.3135 189.159 87.1538 188.19 87.1538H184.22V94.3124H188.364C189.433 94.3124 190.229 94.1328 190.743 93.7668C191.258 93.4009 191.525 92.9086 191.525 92.2766C191.525 91.6445 191.291 91.1988 190.817 90.8795ZM186.286 88.5642H187.99C188.371 88.5642 188.665 88.6241 188.872 88.7439C189.073 88.8636 189.173 89.0565 189.173 89.3227C189.173 89.5622 189.073 89.7484 188.872 89.8882C188.672 90.0279 188.378 90.0944 187.99 90.0944H186.286V88.5642ZM189.099 92.7024C188.885 92.8354 188.578 92.9019 188.177 92.9019H186.286V91.3052H188.217C188.631 91.3052 188.932 91.3718 189.126 91.4982C189.32 91.6246 189.413 91.8308 189.413 92.1169C189.413 92.3764 189.306 92.5693 189.093 92.7024H189.099Z" fill="white"/>
<path d="M200.234 89.9347H196.852V87.1538H194.613V94.3124H196.852V91.6379H200.234V94.3124H202.479V87.1538H200.234V89.9347Z" fill="white"/>
<path d="M216.314 87.1538H214.048V94.3124H216.314V87.1538Z" fill="white"/>
<path d="M210.165 89.4424H208.301V87.1538H206.062V94.3124H209.845C210.934 94.319 211.769 94.1061 212.351 93.667C212.932 93.2279 213.226 92.6159 213.226 91.8242C213.226 91.0325 212.966 90.4869 212.451 90.0678C211.936 89.6487 211.175 89.4424 210.165 89.4424ZM210.64 92.5893C210.413 92.7689 210.072 92.8554 209.631 92.8487H208.301V90.773L209.631 90.7863C210.072 90.793 210.413 90.8795 210.64 91.0325C210.874 91.1855 210.987 91.4449 210.987 91.7976C210.987 92.1502 210.874 92.4096 210.64 92.5893Z" fill="white"/>
<path d="M227.195 87.1538H224.789L223.111 89.2428L221.467 87.1538H218.954L221.828 90.7131L218.82 94.3124H221.307L223.058 92.1236L224.755 94.3124H227.315L224.301 90.6466L227.195 87.1538Z" fill="white"/>
<path d="M234.373 88.8436H236.999V94.3124H239.251V88.8436H241.865V87.1538H234.373V88.8436Z" fill="white"/>
<path d="M249.724 87.4998C249.11 87.2004 248.428 87.0474 247.666 87.0474C246.904 87.0474 246.169 87.207 245.534 87.5197C244.906 87.8324 244.411 88.2715 244.064 88.8303C243.709 89.3892 243.536 90.0212 243.536 90.7331C243.536 91.445 243.716 92.077 244.084 92.6292C244.451 93.1814 244.966 93.6205 245.628 93.9398C246.289 94.2592 247.064 94.4188 247.953 94.4188C248.655 94.4188 249.277 94.319 249.818 94.1195C250.359 93.9199 250.807 93.6338 251.161 93.2612L249.965 92.0637C249.704 92.2965 249.417 92.4695 249.103 92.5826C248.789 92.6957 248.435 92.7556 248.027 92.7556C247.552 92.7556 247.151 92.6757 246.817 92.5227C246.483 92.3697 246.216 92.1435 246.022 91.8508C245.915 91.6911 245.848 91.5115 245.801 91.3185H251.669C251.676 91.2321 251.689 91.1323 251.696 91.0325C251.703 90.9327 251.709 90.8395 251.709 90.7597C251.709 89.988 251.529 89.3293 251.175 88.7771C250.821 88.2249 250.333 87.7991 249.724 87.4998ZM246.663 88.8503C246.958 88.6973 247.298 88.6174 247.679 88.6174C248.06 88.6174 248.401 88.6973 248.689 88.8503C248.976 89.0033 249.203 89.2229 249.37 89.4956C249.477 89.6753 249.531 89.8882 249.564 90.1077H245.775C245.815 89.8882 245.868 89.6819 245.975 89.5023C246.135 89.2229 246.369 89.0033 246.663 88.8503Z" fill="white"/>
<path d="M261.942 87.1538H259.536L257.858 89.2428L256.214 87.1538H253.701L256.575 90.7131L253.574 94.3124H256.054L257.805 92.1236L259.502 94.3124H262.062L259.048 90.6466L261.942 87.1538Z" fill="white"/>
<path d="M270.202 89.9347H266.82V87.1538H264.588V94.3124H266.82V91.6379H270.202V94.3124H272.454V87.1538H270.202V89.9347Z" fill="white"/>
<path d="M281.865 87.5197C281.223 87.207 280.481 87.0474 279.659 87.0474C278.837 87.0474 278.109 87.207 277.474 87.5197C276.832 87.8324 276.331 88.2715 275.963 88.8237C275.596 89.3759 275.415 90.0146 275.415 90.7331C275.415 91.4516 275.596 92.077 275.963 92.6292C276.331 93.1814 276.832 93.6205 277.474 93.9398C278.115 94.2592 278.844 94.4188 279.659 94.4188C280.475 94.4188 281.223 94.2592 281.865 93.9398C282.506 93.6205 283.014 93.188 283.382 92.6358C283.749 92.0836 283.93 91.4516 283.93 90.7331C283.93 90.0146 283.749 89.3759 283.382 88.8237C283.014 88.2715 282.513 87.8324 281.865 87.5197ZM281.384 91.7976C281.203 92.0969 280.969 92.3298 280.675 92.4828C280.381 92.6358 280.04 92.7157 279.659 92.7157C279.278 92.7157 278.964 92.6358 278.663 92.4828C278.363 92.3298 278.129 92.0969 277.948 91.7976C277.768 91.4982 277.681 91.1389 277.681 90.7331C277.681 90.3273 277.768 89.9614 277.948 89.6686C278.129 89.3759 278.363 89.1497 278.663 88.9967C278.964 88.8437 279.298 88.7638 279.673 88.7638C280.047 88.7638 280.381 88.8437 280.675 88.9967C280.969 89.1497 281.203 89.3759 281.384 89.6686C281.564 89.9614 281.651 90.314 281.651 90.7331C281.651 91.1522 281.564 91.4982 281.384 91.7976Z" fill="white"/>
<path d="M287.465 90.0146C287.445 90.3605 287.419 90.6865 287.385 90.9992C287.352 91.3119 287.298 91.5913 287.218 91.8375C287.138 92.0836 287.024 92.2832 286.871 92.4229C286.717 92.5626 286.51 92.6358 286.249 92.6358C286.202 92.6358 286.142 92.6358 286.082 92.6159C286.022 92.5959 285.955 92.5893 285.888 92.5826L285.788 94.3124C286.008 94.3589 286.216 94.3922 286.409 94.4255C286.603 94.4587 286.784 94.4721 286.957 94.4721C287.439 94.4721 287.833 94.3656 288.14 94.146C288.448 93.9265 288.695 93.6271 288.876 93.2413C289.056 92.8554 289.196 92.3963 289.277 91.8641C289.363 91.3319 289.417 90.7464 289.437 90.1077L289.51 88.8436H291.977V94.3124H294.216V87.1538H287.572L287.459 90.0146H287.465Z" fill="white"/>
<path d="M303.633 87.5197C302.991 87.207 302.249 87.0474 301.427 87.0474C300.605 87.0474 299.876 87.207 299.242 87.5197C298.6 87.8324 298.099 88.2715 297.731 88.8237C297.364 89.3759 297.183 90.0146 297.183 90.7331C297.183 91.4516 297.364 92.077 297.731 92.6292C298.099 93.1814 298.6 93.6205 299.242 93.9398C299.883 94.2592 300.612 94.4188 301.427 94.4188C302.242 94.4188 302.991 94.2592 303.633 93.9398C304.274 93.6205 304.782 93.188 305.15 92.6358C305.517 92.0836 305.698 91.4516 305.698 90.7331C305.698 90.0146 305.517 89.3759 305.15 88.8237C304.782 88.2715 304.281 87.8324 303.633 87.5197ZM303.151 91.7976C302.971 92.0969 302.737 92.3298 302.443 92.4828C302.149 92.6358 301.808 92.7157 301.427 92.7157C301.046 92.7157 300.732 92.6358 300.431 92.4828C300.13 92.3298 299.897 92.0969 299.716 91.7976C299.536 91.4982 299.449 91.1389 299.449 90.7331C299.449 90.3273 299.536 89.9614 299.716 89.6686C299.897 89.3759 300.13 89.1497 300.431 88.9967C300.732 88.8437 301.066 88.7638 301.44 88.7638C301.815 88.7638 302.149 88.8437 302.443 88.9967C302.737 89.1497 302.971 89.3759 303.151 89.6686C303.332 89.9614 303.419 90.314 303.419 90.7331C303.419 91.1522 303.332 91.4982 303.151 91.7976Z" fill="white"/>
<path d="M308.658 94.3124H310.897V88.8436H314.881V87.1538H308.658V94.3124Z" fill="white"/>
<path d="M319.733 91.425V87.1538H317.494V94.3124H319.559L323.329 90.0412V94.3124H325.581V87.1538H323.529L319.733 91.425Z" fill="white"/>
<path d="M331.382 91.425V87.1538H329.143V94.3124H331.208L334.977 90.0412V94.3124H337.229V87.1538H335.178L331.382 91.425Z" fill="white"/>
<path d="M331.121 85.8696C331.542 86.2222 332.177 86.3952 333.026 86.3952C333.875 86.3952 334.509 86.2222 334.944 85.8696C335.378 85.517 335.592 85.0047 335.592 84.3195H334.088C334.088 84.6188 333.995 84.8583 333.814 85.038C333.634 85.2176 333.36 85.3041 333.006 85.3041C332.652 85.3041 332.398 85.2176 332.217 85.038C332.037 84.8583 331.943 84.6188 331.936 84.3195H330.466C330.473 85.0047 330.693 85.517 331.114 85.8696H331.121Z" fill="white"/>
<path d="M94.2357 52.7779L94.7102 53.064L94.9641 53.0973H94.9976L97.0427 52.0128C97.0828 51.9929 97.1296 51.9729 97.1764 51.953C97.5306 51.7866 97.8581 51.5937 98.1053 51.4473L100.023 50.2964L97.8848 49.6377C96.2407 49.1321 96.0602 48.6664 96.0602 47.7882C96.0602 45.9919 98.4261 44.7877 101.948 44.7877C105.47 44.7877 107.783 45.9187 107.963 47.8215L108.097 49.192H112.381L112.334 47.6352C112.207 43.4771 108.224 40.8958 101.948 40.8958C95.6726 40.8958 91.6292 43.5702 91.6292 47.8747C91.6292 50.0835 92.5047 51.7334 94.2357 52.7779Z" fill="white"/>
<path d="M106.687 52.9443L104.555 52.5452C104.909 53.0707 105.116 53.7028 105.116 54.3814C105.116 55.2928 104.742 56.1245 104.147 56.7232C108.578 57.455 109.293 58.2068 109.293 59.7104C109.293 61.9458 106.78 63.4427 103.037 63.4427C99.2948 63.4427 96.314 61.52 96.314 59.1516V57.6081H91.9297L91.9765 59.1981C92.1302 64.3009 96.3808 67.4744 103.071 67.4744C109.761 67.4744 113.671 64.5404 113.671 59.6239C113.671 54.7074 110.142 53.5897 106.693 52.9443H106.687Z" fill="white"/>
<path d="M131.101 48.866C128.388 48.866 126.182 49.6577 124.571 51.1945V49.2784H121.517V72.5438H124.571V64.7532C126.189 66.1903 128.468 67.0019 131.101 67.0019C136.835 67.0019 140.685 63.3694 140.685 57.9672C140.685 52.565 136.835 48.8726 131.101 48.8726V48.866ZM124.571 57.9606C124.571 54.2083 127.185 51.6868 131.074 51.6868C134.964 51.6868 137.577 54.2083 137.577 57.9606C137.577 61.7128 134.964 64.1811 131.074 64.1811C127.185 64.1811 124.571 61.6796 124.571 57.9606Z" fill="white"/>
<path d="M164.852 63.6621C166.142 62.092 166.784 60.0895 166.743 57.721C166.743 52.2656 162.947 48.7462 157.066 48.7462C154.433 48.7462 152.154 49.4514 150.463 50.782L148.21 52.5584H153.149L153.377 52.432C154.426 51.8531 155.669 51.5538 157.066 51.5538C161.049 51.5538 163.629 53.9688 163.629 57.7144C163.629 61.46 160.989 64.048 157.066 64.048C153.444 64.048 150.924 61.8991 150.53 58.6126C150.135 58.8787 149.661 59.0317 149.146 59.0317C148.451 59.0317 147.823 58.7456 147.375 58.2799C147.482 60.4687 148.19 62.3981 149.467 63.895C151.231 65.8376 153.858 66.8622 157.066 66.8622C160.441 66.8622 163.134 65.7512 164.852 63.6488V63.6621Z" fill="white"/>
<path d="M185.237 49.2585L184.668 48.9858C184.027 48.6798 182.677 48.5667 181.982 48.5667C180.257 48.5667 178.747 49.2053 177.584 50.3563V48.9791H174.53V66.3433H177.584V57.0758C177.584 54.8138 179.275 51.3875 181.828 51.3875C183.158 51.3875 183.586 51.6403 183.726 51.7201L185.237 52.605V49.2652V49.2585Z" fill="white"/>
<path d="M198.877 66.2835C198.015 65.8976 197.407 65.0394 197.407 64.0348C197.407 63.935 197.427 63.8485 197.433 63.7554C197.233 63.8086 197.019 63.8485 196.852 63.8485C195.876 63.8485 195.542 63.7354 195.542 61.5599V51.7934H199.492V48.9459H195.542V43.903H192.488V48.9459H189.46V51.7934H192.488V61.7927C192.488 64.1612 192.782 66.6893 196.271 66.6893C197.186 66.6893 198.182 66.5296 198.877 66.2768V66.2835Z" fill="white"/>
<path d="M236.772 66.3433V55.1398C236.772 50.6557 234.453 48.5667 229.467 48.5667C225.377 48.5667 223.071 49.9505 221.768 51.5538C220.572 49.4116 218.854 48.5667 215.973 48.5667C213.093 48.5667 210.714 49.2719 209.103 50.6623V48.9791H206.049V66.3433H209.103V56.3972C209.103 53.6761 211.81 51.3808 215.018 51.3808C218.493 51.3808 219.91 52.8778 219.91 56.5435V66.3433H222.964V56.3972C222.964 53.4898 225.604 51.3808 229.247 51.3808C232.582 51.3808 233.711 52.6848 233.711 56.5435V66.3433H236.765H236.772Z" fill="white"/>
<path d="M248.682 48.9791H245.627V66.3433H248.682V48.9791Z" fill="white"/>
<path d="M267.101 48.5667C264.281 48.5667 262.115 49.4516 260.658 50.6624V48.9725H257.604V66.3367H260.658V56.9228C260.658 51.647 266.072 51.3809 267.161 51.3809C270.182 51.3809 271.592 52.7315 271.592 55.6321V66.3367H274.647V55.2463C274.647 51.0549 271.826 48.5601 267.101 48.5601V48.5667Z" fill="white"/>
<path d="M298.459 64.5736V66.3433H301.514V43.0247H298.459V50.8951C296.802 49.3915 294.543 48.5732 291.93 48.5732C289.163 48.5732 286.797 49.3915 285.086 50.9483L283.174 52.6848H287.739L287.993 52.5051C289.083 51.7533 290.453 51.3608 291.956 51.3608C295.846 51.3608 298.459 53.869 298.459 57.6079C298.459 61.3469 295.846 63.855 291.956 63.855C288.608 63.855 286.209 61.9922 285.607 59.0849C285.186 59.4109 284.665 59.6171 284.09 59.6171C283.448 59.6171 282.867 59.3643 282.433 58.9651C283.027 63.6422 286.683 66.6959 291.923 66.6959C294.71 66.6959 296.915 65.9707 298.453 64.5736H298.459Z" fill="white"/>
<path d="M104 53.495C104 52.986 103.845 52.512 103.581 52.1178C103.132 51.4441 102.368 51 101.5 51C100.123 51 99 52.1227 99 53.5C99 54.8772 100.123 56 101.5 56C102.194 56 102.822 55.7156 103.271 55.2565C103.721 54.8024 103.995 54.1836 103.995 53.5L104 53.495Z" fill="#FFB038"/>
<path d="M249.631 45.0339C249.631 43.6767 248.521 42.5723 247.158 42.5723C245.794 42.5723 244.685 43.6767 244.685 45.0339C244.685 46.3911 245.794 47.4954 247.158 47.4954C248.521 47.4954 249.631 46.3911 249.631 45.0339Z" fill="#F24A4D"/>
<path d="M149.473 57.9232C149.987 57.9232 150.462 57.7702 150.856 57.504C151.511 57.0583 151.946 56.3132 151.946 55.4616C151.946 54.1044 150.836 53 149.473 53C148.109 53 147 54.1044 147 55.4616C147 56.1269 147.267 56.7323 147.702 57.1714C148.15 57.6304 148.778 57.9232 149.473 57.9232Z" fill="#F24A4D"/>
<path d="M199.47 65.7036C199.778 65.8434 200.119 65.9232 200.473 65.9232C201.836 65.9232 202.946 64.8188 202.946 63.4616C202.946 62.1044 201.836 61 200.473 61C199.21 61 198.174 61.958 198.027 63.1822C198.013 63.2753 198 63.3684 198 63.4616C198 64.4595 198.608 65.3244 199.47 65.7036Z" fill="#00935B"/>
<path d="M284.473 58.9232C285.048 58.9232 285.569 58.7169 285.99 58.391C286.571 57.9386 286.946 57.2466 286.946 56.4616C286.946 55.1044 285.836 54 284.473 54C283.109 54 282 55.1044 282 56.4616C282 57.1801 282.314 57.8255 282.815 58.2712C283.256 58.6704 283.831 58.9232 284.473 58.9232Z" fill="#FFB038"/>
<path d="M61.8278 46.1117C62.1687 46.1117 62.5229 46.0651 62.8638 45.9786C64.1804 45.6326 65.2096 44.6014 65.5572 43.2908C65.9181 41.927 65.5505 40.5232 64.5613 39.5386C63.5722 38.5539 62.162 38.1814 60.7919 38.5473C59.4753 38.8932 58.446 39.9244 58.0918 41.2284C57.7309 42.5923 58.0985 43.996 59.0876 44.9807C59.8295 45.7191 60.7986 46.1117 61.8211 46.1117H61.8278Z" fill="white"/>
<path d="M45.5006 60.9477L52.7453 54.4544L60.2575 61.1074L63.0645 59.524L55.0311 52.412L58.3995 49.3982C59.4421 48.4668 59.6292 47.1029 58.874 46.0052C58.2057 45.0405 56.9559 44.4617 55.5256 44.4617H44.0904V47.3291H55.5256C55.7529 47.3291 55.9199 47.3823 56.0202 47.4422L42.6802 59.3909L45.5072 60.9543L45.5006 60.9477Z" fill="white"/>
<path d="M79.8062 49.3252C79.8062 34.9548 70.142 26.0332 54.5832 26.0332C47.6659 26.0332 41.6842 27.8694 37.2933 31.3422L34.2924 33.7174H43.4353L43.736 33.551C46.8371 31.8346 50.4862 30.963 54.5832 30.963C66.4194 30.963 74.0719 38.1748 74.0719 49.3385C74.0719 60.5021 66.239 68.1929 54.5832 68.1929C43.6491 68.1929 36.0702 61.5799 35.1145 51.5207C36.939 50.536 38.1755 48.6133 38.1755 46.4045C38.1755 43.1978 35.5556 40.5898 32.3342 40.5898C29.1128 40.5898 26.4929 43.1978 26.4929 46.4045C26.4929 48.5268 27.6425 50.383 29.3534 51.3942C29.721 56.8829 31.5456 61.6864 34.7268 65.4054C39.2983 70.4483 46.1688 73.1095 54.5898 73.1095C63.4319 73.1095 70.4628 70.2288 74.9207 64.7866C78.2557 60.735 79.8998 55.5324 79.8129 49.3252H79.8062Z" fill="#00935B"/>
<path d="M8.84211 5.6617H3.00084V0.884888H0V12.9933H3.00084V8.03015H8.84211V12.9933H11.8229V0.884888H8.84211V5.6617Z" fill="white"/>
<path d="M24.6082 12.9932V7.68416C24.6082 6.26708 24.1939 5.22257 23.3585 4.55062C22.523 3.88533 21.3534 3.54602 19.843 3.54602C19.0544 3.54602 18.2858 3.63916 17.5239 3.83209C16.762 4.02503 16.1137 4.30446 15.5723 4.67037L16.5882 6.55317C16.9558 6.28705 17.3969 6.07415 17.9048 5.92113C18.4128 5.76811 18.9341 5.68827 19.4621 5.68827C20.2373 5.68827 20.8121 5.84795 21.1864 6.17394C21.5606 6.49994 21.7478 6.94569 21.7478 7.52449V7.54445H19.4821C18.4595 7.54445 17.6375 7.65754 17.0159 7.8904C16.3944 8.12325 15.9332 8.44924 15.6458 8.86838C15.3585 9.28752 15.2114 9.77319 15.2114 10.3121C15.2114 10.851 15.3651 11.3233 15.6659 11.7491C15.9666 12.1749 16.3944 12.5142 16.9491 12.7604C17.5038 13.0065 18.1588 13.1329 18.9207 13.1329C19.7895 13.1329 20.5047 12.9733 21.0594 12.6606C21.4336 12.4477 21.7277 12.1616 21.9416 11.829V12.9999H24.6283L24.6082 12.9932ZM20.9123 11.004C20.5247 11.2102 20.0836 11.3167 19.5957 11.3167C19.1078 11.3167 18.7135 11.2169 18.4261 11.0106C18.1387 10.811 17.9917 10.5383 17.9917 10.1923C17.9917 9.87962 18.1187 9.62017 18.3727 9.41393C18.6266 9.20769 19.0878 9.10124 19.7628 9.10124H21.7344V10.0526C21.574 10.4784 21.3 10.7977 20.9123 11.004Z" fill="white"/>
<path d="M30.4964 14.0446C30.2558 14.2242 29.9416 14.3107 29.5473 14.3107C29.2532 14.3107 28.9592 14.2575 28.6718 14.1577C28.3844 14.0512 28.1304 13.9049 27.9099 13.7053L26.8606 15.6413C27.1948 15.9074 27.6091 16.1136 28.1104 16.2666C28.6116 16.4197 29.1196 16.4928 29.6208 16.4928C30.2223 16.4928 30.7704 16.4064 31.2716 16.2334C31.7662 16.0604 32.2207 15.761 32.635 15.3419C33.0494 14.9228 33.4103 14.3306 33.7311 13.5655L38.209 3.68591H35.4621L32.6484 9.99958L29.8614 3.68591H26.9141L31.1847 13.0666L31.1513 13.1464C30.9575 13.5589 30.737 13.8583 30.4964 14.0379V14.0446Z" fill="white"/>
<path d="M44.0434 10.126C44.6449 10.126 45.1862 10.0594 45.6741 9.93304C46.0818 9.8266 46.4561 9.68022 46.8036 9.50724V12.9934H49.6775V3.68591H46.8036V7.59785C46.5162 7.72426 46.2222 7.83736 45.9014 7.9172C45.507 8.01699 45.106 8.06357 44.705 8.06357C44.1169 8.06357 43.6624 7.93715 43.3416 7.68434C43.0208 7.43153 42.8604 7.0124 42.8604 6.44024V3.69257H39.9866V6.63319C39.9866 7.84402 40.3341 8.72886 41.0359 9.28771C41.7376 9.84655 42.7334 10.126 44.0367 10.126H44.0434Z" fill="white"/>
<path d="M56.4544 9.52062H60.7652V12.9935H63.639V3.69263H60.7652V7.30517H56.4544V3.69263H53.6006V12.9935H56.4544V9.52062Z" fill="white"/>
<path d="M69.3934 12.5143C70.2088 12.9267 71.1378 13.1396 72.1871 13.1396C73.2364 13.1396 74.1854 12.9334 75.0074 12.5143C75.8295 12.0951 76.4778 11.5363 76.9389 10.8177C77.4068 10.1059 77.6407 9.28091 77.6407 8.34285C77.6407 7.40478 77.4068 6.57983 76.9389 5.86131C76.4711 5.14279 75.8295 4.57728 75.0074 4.16479C74.1854 3.75231 73.243 3.55273 72.1871 3.55273C71.1311 3.55273 70.2155 3.75896 69.3934 4.16479C68.578 4.57728 67.9364 5.13614 67.4686 5.86131C67.0008 6.57983 66.7668 7.41143 66.7668 8.34285C66.7668 9.27426 67.0008 10.0859 67.4686 10.8111C67.9364 11.5296 68.578 12.1018 69.3934 12.5143ZM70.0016 6.95904C70.2288 6.57982 70.5296 6.2871 70.9105 6.08751C71.2915 5.88792 71.7192 5.78812 72.2004 5.78812C72.6816 5.78812 73.1027 5.88792 73.4836 6.08751C73.8579 6.2871 74.1587 6.57982 74.3859 6.95904C74.6131 7.33826 74.7267 7.80396 74.7267 8.34285C74.7267 8.88174 74.6131 9.33415 74.3859 9.72667C74.1587 10.1192 73.8579 10.4186 73.4836 10.6182C73.1094 10.8178 72.6749 10.9242 72.1871 10.9242C71.6992 10.9242 71.2982 10.8244 70.9172 10.6182C70.5363 10.4186 70.2355 10.1192 70.0083 9.72667C69.781 9.33415 69.6674 8.87508 69.6674 8.34285C69.6674 7.81061 69.781 7.33826 70.0083 6.95904H70.0016Z" fill="white"/>
<path d="M85.7409 7.04553H80.5278V9.20774H85.7409V7.04553Z" fill="white"/>
<path d="M96.8556 12.5143C97.6375 12.1018 98.199 11.523 98.5398 10.7845L96.3276 9.64018C96.0603 10.0926 95.7328 10.4186 95.3518 10.6182C94.9709 10.8178 94.5565 10.9242 94.102 10.9242C93.6208 10.9242 93.1864 10.8244 92.7921 10.6182C92.3978 10.4186 92.0837 10.1259 91.8498 9.73333C91.6158 9.34746 91.5022 8.88174 91.5022 8.34285C91.5022 7.80396 91.6158 7.33826 91.8498 6.95904C92.0837 6.57982 92.3978 6.2871 92.7921 6.08751C93.1864 5.88792 93.6208 5.78812 94.102 5.78812C94.5832 5.78812 94.9709 5.88792 95.3518 6.08751C95.7328 6.2871 96.0603 6.60644 96.3276 7.04553L98.5398 5.90122C98.199 5.14944 97.6309 4.57062 96.8556 4.16479C96.0736 3.75231 95.1647 3.55273 94.1221 3.55273C93.0795 3.55273 92.1037 3.75898 91.275 4.17811C90.4462 4.5906 89.798 5.15609 89.3234 5.87461C88.8489 6.58647 88.615 7.41144 88.615 8.34951C88.615 9.28757 88.8489 10.0992 89.3234 10.8244C89.798 11.5496 90.4462 12.1217 91.275 12.5276C92.1037 12.9334 93.0528 13.1396 94.1221 13.1396C95.1914 13.1396 96.0803 12.9334 96.8556 12.5143Z" fill="white"/>
<path d="M104.328 5.88811H108.451V12.9935H111.325V3.69263H101.474V12.9935H104.328V5.88811Z" fill="white"/>
<path d="M122.687 12.5143C123.509 12.1018 124.157 11.5363 124.618 10.8177C125.086 10.1059 125.32 9.28091 125.32 8.34285C125.32 7.40478 125.086 6.57983 124.618 5.86131C124.151 5.14279 123.509 4.57728 122.687 4.16479C121.865 3.75231 120.922 3.55273 119.867 3.55273C118.811 3.55273 117.895 3.75896 117.073 4.16479C116.257 4.57728 115.616 5.13614 115.148 5.86131C114.68 6.57983 114.446 7.41143 114.446 8.34285C114.446 9.27426 114.68 10.0859 115.148 10.8111C115.616 11.5296 116.257 12.1018 117.073 12.5143C117.888 12.9267 118.817 13.1396 119.867 13.1396C120.916 13.1396 121.865 12.9334 122.687 12.5143ZM117.688 9.72667C117.46 9.33415 117.347 8.87508 117.347 8.34285C117.347 7.81061 117.46 7.33826 117.688 6.95904C117.915 6.57982 118.216 6.2871 118.597 6.08751C118.978 5.88792 119.405 5.78812 119.887 5.78812C120.368 5.78812 120.789 5.88792 121.17 6.08751C121.544 6.2871 121.845 6.57982 122.072 6.95904C122.299 7.33826 122.413 7.80396 122.413 8.34285C122.413 8.88174 122.299 9.33415 122.072 9.72667C121.845 10.1192 121.544 10.4186 121.17 10.6182C120.795 10.8178 120.361 10.9242 119.873 10.9242C119.385 10.9242 118.984 10.8244 118.603 10.6182C118.222 10.4186 117.922 10.1192 117.694 9.72667H117.688Z" fill="white"/>
<path d="M131.308 12.002C131.542 12.2481 131.803 12.4544 132.104 12.6141C132.732 12.96 133.454 13.133 134.276 13.133C135.218 13.133 136.067 12.9334 136.809 12.5342C137.55 12.1351 138.139 11.5829 138.58 10.871C139.014 10.1591 139.235 9.3142 139.235 8.33622C139.235 7.35824 139.014 6.52661 138.58 5.80809C138.145 5.09622 137.557 4.53739 136.809 4.13821C136.067 3.73903 135.218 3.53943 134.276 3.53943C133.427 3.53943 132.685 3.71242 132.057 4.05838C131.723 4.24466 131.435 4.47751 131.181 4.76359V3.67916H128.434V16.3397H131.308V11.9887V12.002ZM131.596 6.95905C131.823 6.57984 132.124 6.28711 132.505 6.08752C132.885 5.88793 133.313 5.78813 133.794 5.78813C134.276 5.78813 134.697 5.88793 135.078 6.08752C135.452 6.28711 135.753 6.57984 135.98 6.95905C136.207 7.33827 136.321 7.80397 136.321 8.34286C136.321 8.88175 136.207 9.33415 135.98 9.72003C135.753 10.1059 135.452 10.4053 135.078 10.6115C134.703 10.8178 134.276 10.9242 133.794 10.9242C133.313 10.9242 132.885 10.8178 132.505 10.6115C132.124 10.4053 131.823 10.1059 131.596 9.72003C131.368 9.33415 131.255 8.8751 131.255 8.34286C131.255 7.81062 131.368 7.33827 131.596 6.95905Z" fill="white"/>
<path d="M144.147 12.9935H147.021V5.88811H150.356V3.69263H140.799V5.88811H144.147V12.9935Z" fill="white"/>
<path d="M160.488 7.4449V12.9935H163.362V3.69263H160.742L155.903 9.24118V3.69263H153.043V12.9935H155.676L160.488 7.4449Z" fill="white"/>
<path d="M176.588 10.3522C176.588 9.55388 176.288 8.94846 175.686 8.53597C175.445 8.36965 175.151 8.24991 174.817 8.15011C174.991 8.07028 175.158 7.99043 175.312 7.89064C175.967 7.4582 176.294 6.86609 176.294 6.11431C176.294 5.36253 175.947 4.7438 175.245 4.32467C174.543 3.90553 173.574 3.69263 172.338 3.69263H167.272V13.0001H172.558C173.922 13.0001 174.938 12.7673 175.599 12.2882C176.261 11.8159 176.595 11.1705 176.595 10.3522H176.588ZM169.905 5.52885H172.077C172.565 5.52885 172.946 5.60869 173.2 5.76171C173.461 5.91472 173.588 6.16752 173.588 6.51347C173.588 6.82616 173.461 7.07232 173.2 7.2453C172.939 7.42493 172.565 7.51141 172.077 7.51141H169.905V5.52219V5.52885ZM173.494 10.9111C173.227 11.0841 172.832 11.1705 172.318 11.1705H169.905V9.09482H172.371C172.899 9.09482 173.287 9.18131 173.534 9.34763C173.781 9.51396 173.902 9.78007 173.902 10.1526C173.902 10.4853 173.768 10.7381 173.494 10.9111Z" fill="white"/>
<path d="M182.737 9.52062H187.048V12.9935H189.921V3.69263H187.048V7.30517H182.737V3.69263H179.883V12.9935H182.737V9.52062Z" fill="white"/>
<path d="M206.924 3.69263H204.03V13.0001H206.924V3.69263Z" fill="white"/>
<path d="M199.071 6.6665H196.698V3.69263H193.844V13.0001H198.67C200.06 13.0134 201.123 12.734 201.865 12.1618C202.606 11.5897 202.981 10.7913 202.981 9.76677C202.981 8.74222 202.653 8.02371 201.998 7.48482C201.343 6.94593 200.367 6.67316 199.078 6.67316L199.071 6.6665ZM199.679 10.7581C199.385 10.9976 198.957 11.104 198.389 11.0974H196.692V8.39627L198.389 8.41622C198.951 8.42953 199.385 8.53599 199.679 8.73557C199.973 8.93516 200.12 9.26781 200.12 9.73352C200.12 10.1992 199.973 10.5252 199.679 10.7647V10.7581Z" fill="white"/>
<path d="M218.266 7.4449V12.9935H221.14V3.69263H218.526L213.681 9.24118V3.69263H210.827V12.9935H213.46L218.266 7.4449Z" fill="white"/>
<path d="M215.779 2.70122C216.862 2.70122 217.678 2.47502 218.232 2.01597C218.787 1.56356 219.061 0.891617 219.061 0.00012207H217.143C217.143 0.392646 217.029 0.705331 216.795 0.931531C216.561 1.16438 216.221 1.27748 215.766 1.27748C215.312 1.27748 214.991 1.16438 214.764 0.931531C214.536 0.698678 214.416 0.392646 214.403 0.00012207H212.525C212.538 0.884964 212.812 1.55691 213.353 2.01597C213.895 2.47502 214.703 2.70122 215.786 2.70122H215.779Z" fill="white"/>
<path d="M234.272 9.46738H235.789L238.436 12.9935H241.824L238.115 8.15011L241.584 3.69263H238.53L235.843 7.30517H234.272V3.69263H231.418V12.9935H234.272V9.46738Z" fill="white"/>
<path d="M252.819 8.53597C252.578 8.36965 252.284 8.24991 251.95 8.15011C252.124 8.07028 252.291 7.99043 252.444 7.89064C253.099 7.4582 253.427 6.86609 253.427 6.11431C253.427 5.36253 253.079 4.7438 252.378 4.32467C251.676 3.90553 250.707 3.69263 249.47 3.69263H244.404V13.0001H249.691C251.054 13.0001 252.07 12.7673 252.732 12.2882C253.393 11.8159 253.728 11.1705 253.728 10.3522C253.728 9.53392 253.427 8.94846 252.825 8.53597H252.819ZM247.038 5.52885H249.21C249.704 5.52885 250.078 5.60869 250.332 5.76171C250.593 5.91472 250.72 6.16752 250.72 6.51347C250.72 6.82616 250.593 7.07232 250.332 7.2453C250.072 7.42493 249.698 7.51141 249.21 7.51141H247.038V5.52219V5.52885ZM250.627 10.9111C250.359 11.0841 249.965 11.1705 249.45 11.1705H247.038V9.09482H249.504C250.032 9.09482 250.419 9.18131 250.667 9.34763C250.914 9.51396 251.034 9.78007 251.034 10.1526C251.034 10.4853 250.901 10.7381 250.627 10.9111Z" fill="white"/>
<path d="M260.505 7.5445C259.489 7.5445 258.66 7.6576 258.039 7.89045C257.41 8.1233 256.956 8.4493 256.669 8.86843C256.381 9.28757 256.234 9.77325 256.234 10.3121C256.234 10.851 256.381 11.3234 256.689 11.7492C256.989 12.175 257.417 12.5143 257.972 12.7604C258.527 13.0066 259.181 13.133 259.943 13.133C260.812 13.133 261.527 12.9733 262.082 12.6606C262.456 12.4477 262.75 12.1617 262.964 11.829V12.9999H265.651V7.69087C265.651 6.27379 265.237 5.22928 264.401 4.55734C263.566 3.89204 262.396 3.55273 260.886 3.55273C260.097 3.55273 259.329 3.64587 258.567 3.83881C257.805 4.03174 257.156 4.31117 256.615 4.67708L257.631 6.55986C257.999 6.29374 258.44 6.08086 258.948 5.92784C259.456 5.77482 259.977 5.69499 260.505 5.69499C261.28 5.69499 261.855 5.85464 262.229 6.18064C262.603 6.50663 262.791 6.95238 262.791 7.53119V7.55116H260.525L260.505 7.5445ZM261.948 11.004C261.561 11.2103 261.12 11.3167 260.632 11.3167C260.144 11.3167 259.75 11.2169 259.462 11.0107C259.175 10.8111 259.028 10.5383 259.028 10.1924C259.028 9.87968 259.155 9.62022 259.402 9.41398C259.649 9.20774 260.117 9.10129 260.792 9.10129H262.764V10.0527C262.603 10.4784 262.329 10.7978 261.942 11.004H261.948Z" fill="white"/>
<path d="M272.16 9.52062H276.471V12.9935H279.345V3.69263H276.471V7.30517H272.16V3.69263H269.307V12.9935H272.16V9.52062Z" fill="white"/>
<path d="M285.387 12.9935H288.261V5.88811H291.596V3.69263H282.032V5.88811H285.387V12.9935Z" fill="white"/>
<path d="M295.712 12.5143C296.528 12.9267 297.457 13.1396 298.499 13.1396C299.542 13.1396 300.498 12.9334 301.32 12.5143C302.142 12.1018 302.79 11.5363 303.251 10.8177C303.712 10.0992 303.953 9.28091 303.953 8.34285C303.953 7.40478 303.719 6.57983 303.251 5.86131C302.784 5.14279 302.142 4.57728 301.32 4.16479C300.498 3.75231 299.555 3.55273 298.499 3.55273C297.444 3.55273 296.528 3.75896 295.712 4.16479C294.897 4.57728 294.256 5.13614 293.788 5.86131C293.32 6.57983 293.086 7.41143 293.086 8.34285C293.086 9.27426 293.32 10.0859 293.788 10.8111C294.256 11.5296 294.897 12.1018 295.712 12.5143ZM296.321 6.95904C296.548 6.57982 296.849 6.2871 297.23 6.08751C297.611 5.88792 298.038 5.78812 298.52 5.78812C299.001 5.78812 299.428 5.88792 299.803 6.08751C300.177 6.2871 300.478 6.57982 300.705 6.95904C300.932 7.33826 301.046 7.80396 301.046 8.34285C301.046 8.88174 300.932 9.33415 300.705 9.72667C300.478 10.1192 300.177 10.4186 299.803 10.6182C299.428 10.8178 298.994 10.9242 298.506 10.9242C298.018 10.9242 297.617 10.8244 297.236 10.6182C296.855 10.4186 296.555 10.1192 296.327 9.72667C296.1 9.33415 295.987 8.87508 295.987 8.34285C295.987 7.81061 296.1 7.33826 296.327 6.95904H296.321Z" fill="white"/>
<path d="M317.206 5.81468C316.772 5.10281 316.184 4.54396 315.435 4.14478C314.693 3.7456 313.845 3.54602 312.902 3.54602C312.054 3.54602 311.312 3.719 310.683 4.06495C310.349 4.25123 310.062 4.48408 309.808 4.77016V3.68573H307.061V16.3463H309.935V11.9953C310.169 12.2414 310.429 12.4477 310.724 12.6073C311.352 12.9533 312.074 13.1263 312.896 13.1263C313.838 13.1263 314.687 12.9267 315.429 12.5275C316.17 12.1283 316.759 11.5761 317.2 10.8643C317.641 10.1524 317.855 9.30748 317.855 8.32949C317.855 7.35151 317.634 6.5199 317.2 5.80138L317.206 5.81468ZM314.607 9.71332C314.379 10.0992 314.079 10.3986 313.704 10.6048C313.33 10.8111 312.902 10.9175 312.421 10.9175C311.94 10.9175 311.512 10.8111 311.131 10.6048C310.75 10.3986 310.45 10.0992 310.222 9.71332C309.995 9.32745 309.881 8.86839 309.881 8.33615C309.881 7.80392 309.995 7.33155 310.222 6.95233C310.45 6.57311 310.75 6.28038 311.131 6.08079C311.512 5.8812 311.94 5.78142 312.421 5.78142C312.902 5.78142 313.323 5.8812 313.704 6.08079C314.079 6.28038 314.379 6.57311 314.607 6.95233C314.834 7.33155 314.947 7.79726 314.947 8.33615C314.947 8.87504 314.834 9.32745 314.607 9.71332Z" fill="white"/>
<path d="M331.342 12.9935V3.69263H328.729L323.883 9.24118V3.69263H321.029V12.9935H323.663L328.468 7.4449V12.9935H331.342Z" fill="white"/>
<path d="M339.622 10.0062L336.835 3.69257H333.888L338.159 13.0732L338.125 13.1531C337.931 13.5655 337.711 13.8649 337.47 14.0446C337.23 14.2242 336.916 14.3107 336.521 14.3107C336.227 14.3107 335.933 14.2575 335.646 14.1577C335.358 14.0512 335.104 13.9049 334.884 13.7053L333.834 15.6413C334.169 15.9074 334.583 16.1136 335.084 16.2666C335.586 16.4197 336.093 16.4928 336.595 16.4928C337.196 16.4928 337.744 16.4064 338.245 16.2334C338.74 16.0604 339.195 15.761 339.609 15.3419C340.023 14.9228 340.384 14.3306 340.705 13.5655L345.183 3.68591H342.436L339.622 9.99958V10.0062Z" fill="white"/>
<path d="M360 12.9935L359.987 3.69263H357.28L353.898 9.06822L350.757 3.69263H347.736V12.9935H350.316V7.35841L353.203 12.0953H354.46L357.394 7.49811L357.407 12.9935H360Z" fill="white"/>
</svg>
